<svg xmlns="http://www.w3.org/2000/svg" xmlns:xlink="http://www.w3.org/1999/xlink" viewBox="0,0,256,256" width="48px" height="48px"><defs><linearGradient x1="9.858" y1="9.858" x2="38.142" y2="38.142" gradientUnits="userSpaceOnUse" id="color-1"><stop offset="0" stop-color="#ffb7c5"></stop><stop offset="0.443" stop-color="#ffb7c5"></stop><stop offset="1" stop-color="#ffb7c5"></stop></linearGradient></defs><g fill="none" fill-rule="nonzero" stroke="none" stroke-width="1" stroke-linecap="butt" stroke-linejoin="miter" stroke-miterlimit="10" stroke-dasharray="" stroke-dashoffset="0" font-family="none" font-weight="none" font-size="none" text-anchor="none" style="mix-blend-mode: normal"><g transform="scale(5.33333,5.33333)"><path d="M44,24c0,11.045 -8.955,20 -20,20c-11.045,0 -20,-8.955 -20,-20c0,-11.045 8.955,-20 20,-20c11.045,0 20,8.955 20,20z" fill="url(#color-1)"></path><path d="M33.352,22.44l-11.436,-7.624c-0.577,-0.385 -1.314,-0.421 -1.925,-0.093c-0.611,0.327 -0.991,0.96 -0.991,1.653v15.248c0,0.693 0.38,1.327 0.991,1.654c0.278,0.149 0.581,0.222 0.884,0.222c0.364,0 0.726,-0.106 1.04,-0.315l11.436,-7.624c0.523,-0.349 0.835,-0.932 0.835,-1.56c0.001,-0.629 -0.312,-1.212 -0.834,-1.561z" fill="#ffb7c5" opacity="0.05"></path><path d="M21.681,15.237l10.79,7.194c0.689,0.495 1.153,0.938 1.153,1.513c0,0.575 -0.224,0.976 -0.715,1.334c-0.371,0.27 -11.045,7.364 -11.045,7.364c-0.901,0.604 -2.364,0.476 -2.364,-1.499v-14.399c0,-2.005 1.584,-1.905 2.181,-1.507z" fill="#ffb7c5" opacity="0.07"></path><path d="M20,31.568v-15.135c0,-0.743 0.828,-1.187 1.447,-0.774l11.352,7.568c0.553,0.368 0.553,1.18 0,1.549l-11.352,7.568c-0.619,0.411 -1.447,-0.032 -1.447,-0.776z" fill="#ffffff"></path></g></g></svg>