<svg xmlns="http://www.w3.org/2000/svg"  viewBox="0 0 256 256" width="64px" height="64px"><path d="M26.3,197.4l-11,4.6c-3.8,1.6-6.7,4.7-8.1,8.6c-2.2,6.2,0,13.2,5.4,16.9c6.9,4.8,17.2,11,26.9,13.5	c15.4,3.9,69.7,8.8,75.7,9.3l3.2,2c1,0.6,2.1,0.9,3.2,0.9c1.4,0,2.8-0.5,3.9-1.4c1.4-1.2,2.2-2.9,2.2-4.7c0-1.6-0.6-3.1-1.8-4.3	l2.1-3.1l2.1,3.1c-1.1,1.1-1.8,2.7-1.8,4.3c0,1.8,0.8,3.5,2.2,4.7c1.1,0.9,2.5,1.4,3.9,1.4c1.1,0,2.2-0.3,3.2-0.9l4-2.5	c6-0.5,59.5-4.9,74.9-8.8c9.7-2.4,19.9-8.7,26.9-13.5c5.4-3.7,7.6-10.7,5.4-16.9c-1.4-3.9-4.3-7-8.1-8.6l-10.9-4.6	c-2.2-0.9-4.7-1.3-7.2-1.1l-54.7,5.5l1.1-4.4c0-0.1,0-0.2,0.1-0.3l2-29.9l7.4-48.3c0.4-2.7,0.1-5.5-1-8.1l-1.2-2.9	c-1.7-4.2-5.3-7.3-9.6-8.6l-11-3.2L142,91.6v-9.8c6.6-7.2,10.9-18.6,10.9-28.7c0-9.1-3.6-17.2-9.3-22.5c0.2-0.7,0.3-1.6,0.3-2.4	c0-8.8-7.2-15.9-15.9-15.9s-15.9,7.2-15.9,15.9c0,0.9,0.2,1.7,0.4,2.4c-5.7,5.3-9.3,13.4-9.3,22.5c0,7.8,2.6,16.6,7,23.6	c1.2,1.9,2.5,3.7,3.9,5.2V91l-13.6,5.1l-11,3.2c-4.4,1.3-7.9,4.4-9.6,8.6l-1.2,2.9c-1.1,2.5-1.4,5.3-1,8l7.4,48.3l2,29.9	c0,0.1,0,0.2,0.1,0.3l0.9,3.6l-54.6-4.8C30.9,196.1,28.5,196.5,26.3,197.4z M40.5,237.1c-2.1-0.5-4.3-1.3-6.4-2.1	c-0.2-2.2-0.5-7.4,1.2-12.3c0.9-2.7,5.4-7.2,7.7-9.2l9.3,1c10,1.1,19.7,3.9,28.6,8.6l14.1,7.3l1.8,7.4c0.3,1,0.9,1.9,1.8,2.5	l8.8,5.4C90.3,243.9,52.5,240.1,40.5,237.1z M123.7,228.7c-0.4-1.2-1.4-2.2-2.6-2.7l2.6-2.2c0.5-0.4,1.2-0.6,1.8-0.4l0.5,0.1v11.8	l-3.2,4.8l-6.3-5.2h2.8c1.8,0,3.4-1,4.2-2.6C124.1,231.3,124.2,229.9,123.7,228.7z M150.8,185.5c-3.6,1.2-14.6,4.7-22.6,4.8	c-8,0.1-19.3-3.6-23-4.8l-1.1-14.5h47.7L150.8,185.5z M127.9,194.4c0.1,0,0.2,0,0.4,0c7.7-0.1,17.4-2.9,22.2-4.5l-2.3,32.1H145	c-0.3,0-0.5,0.1-0.8,0.2l-5.3,2.2l-4.1-3.5c-1.5-1.3-3.5-1.7-5.4-1.3l-1.5,0.4l-1.5-0.4c-1.9-0.5-3.9,0-5.4,1.3l-4.1,3.5l-5.3-2.2	c-0.2-0.1-0.5-0.2-0.8-0.2h-3.1l-2.3-32.1C110.4,191.5,120.2,194.4,127.9,194.4z M130,223.6l0.5-0.1c0.6-0.2,1.3,0,1.8,0.4l2.6,2.2	c-1.2,0.5-2.1,1.5-2.6,2.7c-0.4,1.2-0.4,2.6,0.2,3.7c0.8,1.6,2.4,2.6,4.2,2.6h2.8l-6.3,5.2l-3.2-4.8V223.6z M215.5,237.1	c-12,3-49.4,6.5-66.3,8l8.1-4.9c0.9-0.6,1.6-1.4,1.8-2.5l2.1-8.4l14.6-7.1c8.5-4.1,17.5-6.7,26.8-7.7l8.7-0.9	c1.6,1.3,6.2,5.3,7.4,9.3c1.1,3.7-0.4,10.4-1.4,13.6C216.8,236.7,216.1,236.9,215.5,237.1z M223,200.3c1.8-0.2,3.6,0.1,5.2,0.8	l10.9,4.6c2.7,1.2,4.9,3.4,5.9,6.2c1.6,4.5,0,9.6-3.9,12.3c-5.1,3.5-12.1,7.9-19.1,10.7c0.9-3.7,1.8-9.2,0.6-13.1	c-1-3.4-3.6-6.6-5.9-8.8l9.5-1l-0.4-4l-23.6,2.5c-9.8,1-19.3,3.7-28.2,8.1l-11.6,5.7l4.4-18.2L223,200.3z M172.5,109.5l1.2,2.9	c0.8,1.9,1,3.9,0.7,5.9l-7.4,48.4c0,0.1,0,0.1,0,0.2l-2,29.8l-9.8,40l-19.8,12.1c-0.8,0.5-1.7,0.4-2.4-0.2c-0.6-0.5-0.7-1.2-0.7-1.6	c0-0.4,0.1-1,0.8-1.6l13.2-10.9c0.7-0.5,0.9-1.4,0.6-2.2c-0.3-0.8-1-1.3-1.9-1.3h-8.4c-0.2,0-0.5-0.1-0.6-0.4	c-0.1-0.2-0.1-0.4,0-0.5s0.1-0.3,0.4-0.4l9-3.8h2.7c2.1,0,3.8-1.6,4-3.7l3.9-53.1l4.2-30.4c0.5-3.9,0.4-7.8-0.5-11.7l-3.2-14.3	c-0.9-4-0.9-8.3-0.1-12.3l9,2.7C168.7,104.1,171.3,106.4,172.5,109.5z M118,85.3c3.2,2.3,6.6,3.5,10,3.5c3.6,0,6.9-1.3,10-3.5v9.8	c0,5.5-4.5,10-10,10s-10-4.5-10-10V85.3z M128,16.1c6.4,0,11.7,5.1,11.9,11.5c-3.5-2.2-7.6-3.5-11.9-3.5s-8.4,1.3-11.9,3.5	C116.3,21.3,121.6,16.1,128,16.1z M128,28.1c10,0,18.3,8.3,20.4,19.5c-4.6-7.1-12-11.5-20.4-11.5c-8.4,0-16,4.9-20.6,12.5	C109.2,36.9,117.7,28.1,128,28.1z M107.6,58.9C109.9,48,118.4,40,128,40c9.9,0,18.3,7.5,20.5,18.2c-2,12.9-10.8,26.6-20.5,26.6	C118.4,84.9,109.8,71.6,107.6,58.9z M114,95.3c0.1,7.7,6.3,13.9,14,13.9c7.5,0,13.6-5.9,14-13.4l10.6,3.5c-1.1,4.7-1.1,9.6,0,14.4	l3.2,14.3c0.8,3.4,0.9,6.8,0.4,10.3l-4,28.7h-48.5l-4-28.8c-0.5-3.4-0.3-6.8,0.4-10.1l3.2-14.8c1-4.6,1-9.4,0-14L114,95.3z M81.5,118.3c-0.3-2-0.1-4,0.7-5.9l1.2-2.9c1.3-3.1,3.9-5.4,7-6.3l9-2.7c0.8,3.9,0.8,8-0.1,11.9l-3.2,14.8c-0.8,3.8-1,7.7-0.4,11.5	l4.2,30.5l3.9,53.1c0.2,2.1,1.9,3.7,4,3.7h2.7l9,3.8c0.2,0.1,0.3,0.3,0.4,0.4s0.1,0.3,0,0.5c-0.1,0.2-0.3,0.4-0.6,0.4H111	c-0.8,0-1.6,0.5-1.9,1.3c-0.3,0.8,0,1.7,0.6,2.2l13.2,10.9c0.7,0.5,0.8,1.2,0.8,1.6c0,0.4-0.1,1.1-0.7,1.6c-0.7,0.6-1.6,0.6-2.4,0.2	l-19.8-12.1l-9.8-40l-2-29.8c0-0.1,0-0.1,0-0.2L81.5,118.3z M93.8,225.1l-11-5.7c-9.4-4.9-19.5-7.9-30.1-9L30.2,208l-0.4,4l8,0.8	c-2.4,2.4-5.3,5.7-6.3,8.5c-1.5,4.4-1.7,8.8-1.6,11.8c-5.6-2.7-10.9-6.1-15-8.9c-3.9-2.7-5.5-7.8-3.9-12.3c1-2.8,3.1-5.1,5.9-6.2	l11-4.6c1.6-0.7,3.3-0.9,5.1-0.8l56,5L93.8,225.1z"/></svg>