<svg xmlns="http://www.w3.org/2000/svg"  viewBox="0 0 72 72" width="64px" height="64px"><path d="M55.07 20.15C54.39 20.05 53.7 20 53 20H19c-.7 0-1.39.05-2.07.15l1.69-1.98c1.71-2.01 4.21-3.17 6.85-3.17h21.06c2.64 0 5.14 1.16 6.85 3.17L55.07 20.15zM63 34v12c0 5.523-4.477 10-10 10h-6.471c-4.218 0-8.126-2.215-10.294-5.833l-.15-.25c-.039-.065-.133-.065-.172 0l-.154.257C33.591 53.789 29.685 56 25.47 56H19c-5.523 0-10-4.477-10-10V34c0-5.523 4.477-10 10-10h34C58.523 24 63 28.477 63 34zM48 34c-2.761 0-5 2.239-5 5s2.239 5 5 5 5-2.239 5-5S50.761 34 48 34zM24 34c-2.761 0-5 2.239-5 5s2.239 5 5 5 5-2.239 5-5S26.761 34 24 34z"/></svg>