<svg xmlns="http://www.w3.org/2000/svg"  viewBox="0 0 50 50" width="50px" height="50px"><path d="M 38.65625 0 C 35.164063 0 33.265625 1.410156 33.1875 1.46875 C 33.152344 1.496094 33.09375 1.53125 33.0625 1.5625 L 3.59375 31.125 C 1.066406 33.445313 0 36.617188 0 39 C 0 45.269531 4.730469 50 11 50 C 17.644531 50 20 45.484375 20 41.625 C 20 36.988281 16.992188 34 12.34375 34 C 8.605469 34 6 36.367188 6 39.75 C 6 41.761719 7.742188 44 10.25 44 C 12.894531 44 14 42.046875 14 41 C 14 40.445313 13.550781 39.96875 13 39.96875 C 12.449219 39.96875 12 40.417969 12 40.96875 C 12 40.980469 11.785156 42 10.25 42 C 8.851563 42 8 40.691406 8 39.75 C 8 36.984375 10.335938 36 12.34375 36 C 15.882813 36 18 38.101563 18 41.625 C 18 45.613281 15.382813 48 11 48 C 5.867188 48 2 44.132813 2 39 C 2 35.519531 4.832031 30 12.46875 30 C 16.140625 30 19.015625 31.128906 20.96875 33.375 C 25.1875 38.234375 24.011719 46.789063 24 46.875 C 23.9375 47.332031 24.195313 47.765625 24.625 47.9375 C 25.054688 48.109375 25.546875 47.941406 25.8125 47.5625 L 49.8125 13.5625 C 49.929688 13.394531 50 13.207031 50 13 C 50 3.40625 43.894531 0 38.65625 0 Z M 32.90625 5.9375 C 36.324219 5.800781 39.375 6.710938 41.40625 8.5625 C 43.640625 10.597656 44.671875 13.652344 44.53125 17.59375 L 42.75 20.09375 C 42.351563 17.394531 41.269531 14.113281 38.46875 11.78125 C 35.953125 9.683594 32.554688 8.792969 28.375 9.09375 L 31.4375 6.0625 C 31.941406 6 32.417969 5.957031 32.90625 5.9375 Z M 20.6875 18.4375 C 28.683594 18.652344 34.210938 22.902344 35.71875 30.0625 L 33.0625 33.84375 C 30.882813 26.488281 24.011719 21.484375 16.09375 21.4375 L 19.0625 18.46875 C 19.617188 18.445313 20.15625 18.421875 20.6875 18.4375 Z"/></svg>