<svg xmlns="http://www.w3.org/2000/svg"  viewBox="0 0 128 128" width="64px" height="64px"><path d="M16.9 91.1c.6.6 1.4.9 2.1.9s1.5-.3 2.1-.9l15-15c1.2-1.2 1.2-3.1 0-4.2-1.2-1.2-3.1-1.2-4.2 0L22 81.8V24c0-3.9 3.1-7 7-7h70c1.7 0 3-1.3 3-3s-1.3-3-3-3H29c-7.2 0-13 5.8-13 13v57.8l-9.9-9.9c-1.2-1.2-3.1-1.2-4.2 0-1.2 1.2-1.2 3.1 0 4.2L16.9 91.1zM111.1 36.9c-1.2-1.2-3.1-1.2-4.2 0l-15 15c-1.2 1.2-1.2 3.1 0 4.2 1.2 1.2 3.1 1.2 4.2 0l9.9-9.9V104c0 3.9-3.1 7-7 7H29c-1.7 0-3 1.3-3 3s1.3 3 3 3h70c7.2 0 13-5.8 13-13V46.2l9.9 9.9c.6.6 1.4.9 2.1.9s1.5-.3 2.1-.9c1.2-1.2 1.2-3.1 0-4.2L111.1 36.9z"/></svg>