<svg xmlns="http://www.w3.org/2000/svg"  viewBox="0 0 32 32" width="32px" height="32px"><path d="M 6 4 L 6 11.40625 C 5.390625 12.109375 5 13.003906 5 14 C 5 15.113281 5.476563 16.117188 6.21875 16.84375 C 4.886719 17.746094 4 19.28125 4 21 L 6 21 C 6 19.332031 7.332031 18 9 18 C 10.667969 18 12 19.332031 12 21 L 14 21 C 14 20.289063 13.835938 19.613281 13.5625 19 L 28 19 L 28 17 L 26 17 L 26 4 Z M 8 6 L 24 6 L 24 17 L 12 17 C 11.929688 16.945313 11.855469 16.894531 11.78125 16.84375 C 12.523438 16.117188 13 15.113281 13 14 C 13 11.800781 11.199219 10 9 10 C 8.65625 10 8.320313 10.074219 8 10.15625 Z M 9 12 C 10.117188 12 11 12.882813 11 14 C 11 15.117188 10.117188 16 9 16 C 7.882813 16 7 15.117188 7 14 C 7 12.882813 7.882813 12 9 12 Z M 8 22 C 6.355469 22 5 23.355469 5 25 C 5 26.644531 6.355469 28 8 28 C 8.765625 28 9.46875 27.699219 10 27.21875 C 10.53125 27.699219 11.234375 28 12 28 C 12.765625 28 13.46875 27.699219 14 27.21875 C 14.53125 27.699219 15.234375 28 16 28 C 16.765625 28 17.46875 27.699219 18 27.21875 C 18.53125 27.699219 19.234375 28 20 28 C 20.765625 28 21.46875 27.699219 22 27.21875 C 22.53125 27.699219 23.234375 28 24 28 C 25.644531 28 27 26.644531 27 25 C 27 23.355469 25.644531 22 24 22 C 23.234375 22 22.53125 22.300781 22 22.78125 C 21.46875 22.300781 20.765625 22 20 22 C 19.234375 22 18.53125 22.300781 18 22.78125 C 17.46875 22.300781 16.765625 22 16 22 C 15.234375 22 14.53125 22.300781 14 22.78125 C 13.46875 22.300781 12.765625 22 12 22 C 11.234375 22 10.53125 22.300781 10 22.78125 C 9.46875 22.300781 8.765625 22 8 22 Z M 8 24 C 8.5625 24 9 24.4375 9 25 C 9 25.5625 8.5625 26 8 26 C 7.4375 26 7 25.5625 7 25 C 7 24.4375 7.4375 24 8 24 Z M 12 24 C 12.5625 24 13 24.4375 13 25 C 13 25.5625 12.5625 26 12 26 C 11.4375 26 11 25.5625 11 25 C 11 24.4375 11.4375 24 12 24 Z M 16 24 C 16.5625 24 17 24.4375 17 25 C 17 25.5625 16.5625 26 16 26 C 15.4375 26 15 25.5625 15 25 C 15 24.4375 15.4375 24 16 24 Z M 20 24 C 20.5625 24 21 24.4375 21 25 C 21 25.5625 20.5625 26 20 26 C 19.4375 26 19 25.5625 19 25 C 19 24.4375 19.4375 24 20 24 Z M 24 24 C 24.5625 24 25 24.4375 25 25 C 25 25.5625 24.5625 26 24 26 C 23.4375 26 23 25.5625 23 25 C 23 24.4375 23.4375 24 24 24 Z"/></svg>