<svg xmlns="http://www.w3.org/2000/svg" xmlns:xlink="http://www.w3.org/1999/xlink" zoomAndPan="magnify" preserveAspectRatio="xMidYMid meet" version="1.0" viewBox="98.13 165.61 159.82 43.77"><defs><g/><clipPath id="1014af964f"><path d="M 161.371094 165.613281 L 254 165.613281 L 254 209.386719 L 161.371094 209.386719 Z M 161.371094 165.613281 " clip-rule="nonzero"/></clipPath><clipPath id="637586d8ab"><path d="M 193.867188 165.613281 L 247.453125 165.613281 C 249.601562 165.613281 251.589844 166.765625 252.652344 168.636719 C 253.71875 170.503906 253.699219 172.796875 252.601562 174.648438 L 237.382812 200.351562 C 234.066406 205.953125 228.039062 209.386719 221.53125 209.386719 L 167.945312 209.386719 C 165.796875 209.386719 163.8125 208.234375 162.746094 206.363281 C 161.683594 204.496094 161.703125 202.203125 162.796875 200.351562 L 178.019531 174.648438 C 181.335938 169.046875 187.359375 165.613281 193.867188 165.613281 Z M 193.867188 165.613281 " clip-rule="nonzero"/></clipPath></defs><g clip-path="url(#1014af964f)"><g clip-path="url(#637586d8ab)"><path fill="#ffd1d4" d="M 157.445312 165.613281 L 257.953125 165.613281 L 257.953125 209.386719 L 157.445312 209.386719 Z M 157.445312 165.613281 " fill-opacity="1" fill-rule="nonzero"/></g></g><g fill="#000000" fill-opacity="1"><g transform="translate(97.099767, 201.677315)"><g><path d="M 23.59375 -21.59375 L 9.796875 -5.203125 L 23.8125 -5.203125 L 23.8125 0 L 1.03125 0 L 1.03125 -4.203125 L 14.859375 -20.609375 L 1.515625 -20.609375 L 1.515625 -25.796875 L 23.59375 -25.796875 Z M 23.59375 -21.59375 "/></g></g></g><g fill="#000000" fill-opacity="1"><g transform="translate(119.875894, 201.677315)"><g><path d="M 11.234375 -20.09375 C 14.679688 -20.09375 17.269531 -19.035156 19 -16.921875 C 20.726562 -14.804688 21.484375 -11.90625 21.265625 -8.21875 L 7.296875 -8.21875 C 7.617188 -7.039062 8.179688 -6.128906 8.984375 -5.484375 C 9.796875 -4.847656 10.796875 -4.53125 11.984375 -4.53125 C 13.796875 -4.53125 15.378906 -5.207031 16.734375 -6.5625 L 20.09375 -3.28125 C 17.945312 -0.945312 15.054688 0.21875 11.421875 0.21875 C 8.203125 0.21875 5.640625 -0.703125 3.734375 -2.546875 C 1.835938 -4.390625 0.890625 -6.832031 0.890625 -9.875 C 0.890625 -12.945312 1.835938 -15.414062 3.734375 -17.28125 C 5.640625 -19.15625 8.140625 -20.09375 11.234375 -20.09375 Z M 7.1875 -11.640625 L 15.15625 -11.640625 C 15.15625 -12.847656 14.800781 -13.820312 14.09375 -14.5625 C 13.394531 -15.300781 12.46875 -15.671875 11.3125 -15.671875 C 10.226562 -15.671875 9.316406 -15.304688 8.578125 -14.578125 C 7.847656 -13.847656 7.382812 -12.867188 7.1875 -11.640625 Z M 7.1875 -11.640625 "/></g></g></g><g fill="#000000" fill-opacity="1"><g transform="translate(139.961573, 201.677315)"><g><path d="M 15.546875 -20.15625 C 17.734375 -20.15625 19.488281 -19.460938 20.8125 -18.078125 C 22.144531 -16.691406 22.8125 -14.84375 22.8125 -12.53125 L 22.8125 0 L 16.46875 0 L 16.46875 -10.765625 C 16.46875 -11.921875 16.15625 -12.832031 15.53125 -13.5 C 14.90625 -14.175781 14.050781 -14.515625 12.96875 -14.515625 C 11.84375 -14.515625 10.914062 -14.144531 10.1875 -13.40625 C 9.46875 -12.675781 9.046875 -11.707031 8.921875 -10.5 L 8.921875 0 L 2.546875 0 L 2.546875 -19.859375 L 8.921875 -19.859375 L 8.921875 -16.625 C 10.316406 -18.9375 12.523438 -20.113281 15.546875 -20.15625 Z M 15.546875 -20.15625 "/></g></g></g><g fill="#000000" fill-opacity="1"><g transform="translate(167.807293, 201.677315)"><g><path d="M 16.765625 0 L 9.984375 0 L -0.03125 -25.796875 L 6.96875 -25.796875 L 13.5625 -6.8125 L 20.15625 -25.796875 L 26.90625 -25.796875 Z M 16.765625 0 "/></g></g></g><g fill="#000000" fill-opacity="1"><g transform="translate(192.573616, 201.677315)"><g><path d="M 3.328125 -28 C 3.960938 -28.625 4.769531 -28.9375 5.75 -28.9375 C 6.726562 -28.9375 7.53125 -28.625 8.15625 -28 C 8.789062 -27.375 9.109375 -26.566406 9.109375 -25.578125 C 9.109375 -24.597656 8.789062 -23.785156 8.15625 -23.140625 C 7.53125 -22.503906 6.726562 -22.1875 5.75 -22.1875 C 4.769531 -22.1875 3.960938 -22.503906 3.328125 -23.140625 C 2.703125 -23.785156 2.390625 -24.597656 2.390625 -25.578125 C 2.390625 -26.566406 2.703125 -27.375 3.328125 -28 Z M 8.890625 0 L 2.546875 0 L 2.546875 -19.859375 L 8.890625 -19.859375 Z M 8.890625 0 "/></g></g></g><g fill="#000000" fill-opacity="1"><g transform="translate(201.934339, 201.677315)"><g><path d="M 15.03125 -20.09375 C 17.832031 -20.09375 20.085938 -19.148438 21.796875 -17.265625 C 23.503906 -15.390625 24.359375 -12.914062 24.359375 -9.84375 C 24.359375 -6.820312 23.519531 -4.390625 21.84375 -2.546875 C 20.175781 -0.703125 17.957031 0.21875 15.1875 0.21875 C 12.582031 0.21875 10.554688 -0.738281 9.109375 -2.65625 L 9.109375 0 L 2.734375 0 L 2.734375 -27.34375 L 9.109375 -27.34375 L 9.109375 -17.25 C 10.578125 -19.144531 12.550781 -20.09375 15.03125 -20.09375 Z M 13.484375 -4.828125 C 14.816406 -4.828125 15.894531 -5.3125 16.71875 -6.28125 C 17.539062 -7.25 17.953125 -8.492188 17.953125 -10.015625 C 17.953125 -11.546875 17.539062 -12.789062 16.71875 -13.75 C 15.894531 -14.707031 14.816406 -15.1875 13.484375 -15.1875 C 12.210938 -15.1875 11.164062 -14.707031 10.34375 -13.75 C 9.519531 -12.789062 9.109375 -11.550781 9.109375 -10.03125 C 9.109375 -8.476562 9.507812 -7.222656 10.3125 -6.265625 C 11.125 -5.304688 12.179688 -4.828125 13.484375 -4.828125 Z M 13.484375 -4.828125 "/></g></g></g><g fill="#000000" fill-opacity="1"><g transform="translate(225.079023, 201.677315)"><g><path d="M 11.234375 -20.09375 C 14.679688 -20.09375 17.269531 -19.035156 19 -16.921875 C 20.726562 -14.804688 21.484375 -11.90625 21.265625 -8.21875 L 7.296875 -8.21875 C 7.617188 -7.039062 8.179688 -6.128906 8.984375 -5.484375 C 9.796875 -4.847656 10.796875 -4.53125 11.984375 -4.53125 C 13.796875 -4.53125 15.378906 -5.207031 16.734375 -6.5625 L 20.09375 -3.28125 C 17.945312 -0.945312 15.054688 0.21875 11.421875 0.21875 C 8.203125 0.21875 5.640625 -0.703125 3.734375 -2.546875 C 1.835938 -4.390625 0.890625 -6.832031 0.890625 -9.875 C 0.890625 -12.945312 1.835938 -15.414062 3.734375 -17.28125 C 5.640625 -19.15625 8.140625 -20.09375 11.234375 -20.09375 Z M 7.1875 -11.640625 L 15.15625 -11.640625 C 15.15625 -12.847656 14.800781 -13.820312 14.09375 -14.5625 C 13.394531 -15.300781 12.46875 -15.671875 11.3125 -15.671875 C 10.226562 -15.671875 9.316406 -15.304688 8.578125 -14.578125 C 7.847656 -13.847656 7.382812 -12.867188 7.1875 -11.640625 Z M 7.1875 -11.640625 "/></g></g></g></svg>